<svg width="30" height="8" viewBox="0 0 30 8" fill="none" xmlns="http://www.w3.org/2000/svg">
<path id="AMEX" fill-rule="evenodd" clip-rule="evenodd" d="M4.09517 0.5L0.914062 7.74674H4.7223L5.19441 6.59131H6.27355L6.74566 7.74674H10.9375V6.86488L11.311 7.74674H13.4793L13.8528 6.84624V7.74674H22.5706L23.6307 6.62132L24.6232 7.74674L29.1009 7.75606L25.9097 4.1436L29.1009 0.5H24.6927L23.6608 1.60463L22.6995 0.5H13.2156L12.4013 2.37045L11.5678 0.5H7.7675V1.35186L7.34474 0.5H4.09517ZM4.83205 1.52905H6.68836L8.79839 6.44311V1.52905H10.8319L12.4617 5.0524L13.9637 1.52905H15.987V6.72906H14.7559L14.7458 2.65436L12.9509 6.72906H11.8495L10.0446 2.65436V6.72906H7.51179L7.03162 5.56329H4.43745L3.95827 6.72804H2.60123L4.83205 1.52905ZM22.1196 1.52905H17.1134V6.726H22.0421L23.6307 5.00364L25.1618 6.726H26.7624L24.436 4.14258L26.7624 1.52905H25.2313L23.6507 3.23162L22.1196 1.52905ZM5.73508 2.40886L4.8804 4.4856H6.58876L5.73508 2.40886ZM18.3497 3.55497V2.60571V2.6048H21.4734L22.8364 4.12291L21.413 5.64932H18.3497V4.613H21.0808V3.55497H18.3497Z" fill="white"/>
</svg>
