<svg width="18" height="16" viewBox="0 0 18 16" fill="none" xmlns="http://www.w3.org/2000/svg">
<path id="DinersClub" fill-rule="evenodd" clip-rule="evenodd" d="M7.83776 15.2998H10.4338C14.4863 15.2998 17.7155 12.0848 17.8422 8.11329V8.05025C17.7789 4.01572 14.4863 0.737659 10.4338 0.800699H7.52116C3.65869 0.926778 0.619367 4.20484 0.746006 8.11329C0.746006 12.0217 3.91197 15.2368 7.83776 15.2998ZM2.01239 8.05022C2.01239 4.77216 4.73512 2.06146 8.02772 2.06146C11.3203 2.06146 14.043 4.77216 14.043 8.05022C14.043 11.3283 11.3203 14.039 8.02772 14.039C4.73512 14.039 2.01239 11.3283 2.01239 8.05022ZM8.9775 12.0848V4.07874C11.1937 4.64609 12.5867 6.85248 12.0168 9.05886C11.6369 10.5718 10.4972 11.7065 8.9775 12.0848ZM4.10192 7.0416C3.53205 9.24798 4.86175 11.5174 7.07793 12.0848V4.07874C5.62158 4.45697 4.48184 5.59169 4.10192 7.0416Z" fill="#145095"/>
</svg>
