<svg width="25" height="8" viewBox="0 0 25 8" fill="none" xmlns="http://www.w3.org/2000/svg">
<path id="visa-logo" fill-rule="evenodd" clip-rule="evenodd" d="M6.75103 7.85786H4.69129L3.14674 1.79198C3.07343 1.51295 2.91776 1.26627 2.68879 1.15001C2.11737 0.857839 1.4877 0.625314 0.800781 0.508041V0.274505H4.11886C4.57681 0.274505 4.92026 0.625314 4.97751 1.03274L5.77891 5.40826L7.83764 0.274505H9.84014L6.75103 7.85786ZM10.985 7.85786H9.03975L10.6415 0.274505H12.5868L10.985 7.85786ZM15.1035 2.37532C15.1607 1.96689 15.5042 1.73335 15.9049 1.73335C16.5346 1.67471 17.2205 1.79199 17.7929 2.08315L18.1364 0.450419C17.5639 0.216883 16.9343 0.0996094 16.3628 0.0996094C14.4748 0.0996094 13.101 1.15002 13.101 2.60785C13.101 3.71689 14.0741 4.29922 14.761 4.65003C15.5042 4.99982 15.7904 5.23336 15.7332 5.58316C15.7332 6.10786 15.1607 6.34139 14.5893 6.34139C13.9024 6.34139 13.2155 6.16649 12.5868 5.87432L12.2433 7.50806C12.9303 7.79922 13.6734 7.9165 14.3603 7.9165C16.4773 7.97412 17.7929 6.92473 17.7929 5.34962C17.7929 3.36608 15.1035 3.24982 15.1035 2.37532ZM24.6008 7.85786L23.0562 0.274505H21.3972C21.0537 0.274505 20.7103 0.508041 20.5958 0.857839L17.7356 7.85786H19.7381L20.1378 6.74982H22.5983L22.8273 7.85786H24.6008ZM21.6834 2.31669L22.2548 5.17473H20.653L21.6834 2.31669Z" fill="#172B85"/>
</svg>
